<?xml version="1.0" encoding="UTF-8" standalone="no"?>
<svg width="32" height="32" xmlns="http://www.w3.org/2000/svg">
  <linearGradient id="lg">
    <stop offset="0%" stop-color="#e8e8e8"/>
    <stop offset="100%" stop-color="#d9d9d9"/>
  </linearGradient>
  <rect x="1" y="1" width="30" height="30" style="fill:url(#lg);stroke:#555555;stroke-width:1" />
  <path style="fill:#d80027;stroke-width:1" d="M 0.5,30 C 0.96963657,30.560727 1.4392731,31 1.9089097,31.5 6.6059398,26.80297 11.30297,22.105939 16,17.408909 20.69703,22.105939 25.394061,26.80297 30,31.5 30.560727,31 31,30.560727 31.5,30 26.80297,25.394061 22.105939,20.69703 17.408909,16 22.105939,11.30297 26.80297,6.6059395 31.5,1.9089093 31,1.4392729 30.560727,0.96963643 30,0.5 25.394061,5.1970303 20.69703,9.8940607 16,14.591091 11.30297,9.8940607 6.6059398,5.1970303 1.9089097,0.5 1.4392731,0.96963643 0.96963657,1.4392729 0.5,1.9089093 5.1970303,6.6059395 9.8940607,11.30297 14.591091,16 9.8940607,20.69703 5.1970303,25.394061 0.5,30 Z" />
</svg>
