<?xml version="1.0" encoding="UTF-8" standalone="no"?>
<!-- Creator: CorelDRAW -->
<svg
   xmlns:dc="http://purl.org/dc/elements/1.1/"
   xmlns:cc="http://creativecommons.org/ns#"
   xmlns:rdf="http://www.w3.org/1999/02/22-rdf-syntax-ns#"
   xmlns:svg="http://www.w3.org/2000/svg"
   xmlns="http://www.w3.org/2000/svg"
   xmlns:sodipodi="http://sodipodi.sourceforge.net/DTD/sodipodi-0.dtd"
   xmlns:inkscape="http://www.inkscape.org/namespaces/inkscape"
   xml:space="preserve"
   width="220"
   height="179.37"
   style="fill-rule:evenodd"
   viewBox="0 0 2480 3508"
   id="svg3688"
   sodipodi:version="0.32"
   inkscape:version="0.46"
   sodipodi:docname="radio2b.svg"
   inkscape:output_extension="org.inkscape.output.svg.inkscape"
   version="1.0"><metadata
   id="metadata3722"><rdf:RDF><cc:Work
       rdf:about=""><dc:format>image/svg+xml</dc:format><dc:type
         rdf:resource="http://purl.org/dc/dcmitype/StillImage" /></cc:Work></rdf:RDF></metadata><sodipodi:namedview
   inkscape:window-height="480"
   inkscape:window-width="640"
   inkscape:pageshadow="2"
   inkscape:pageopacity="0.0"
   guidetolerance="10.0"
   gridtolerance="10.0"
   objecttolerance="10.0"
   borderopacity="1.0"
   bordercolor="#666666"
   pagecolor="#ffffff"
   id="base"
   showgrid="false"
   inkscape:zoom="2.8209846"
   inkscape:cx="110"
   inkscape:cy="89.684998"
   inkscape:current-layer="svg3688" />
 <defs
   id="defs3690"><inkscape:perspective
   sodipodi:type="inkscape:persp3d"
   inkscape:vp_x="0 : 1754 : 1"
   inkscape:vp_y="0 : 1000 : 0"
   inkscape:vp_z="2480 : 1754 : 1"
   inkscape:persp3d-origin="1240 : 1169.3333 : 1"
   id="perspective3724" />
  <style
   type="text/css"
   id="style3692">
   
    .fil0 {fill:#000000}
    .fil1 {fill:#FFFFFF}
   
  </style>
 </defs>
 <g
   id="Layer 1"
   transform="matrix(2.1131648,0,0,2.1131607,-1379.2678,-1953.5699)">
  <path
   class="fil0"
   d="M 470,1122 L 470,1627 L 1492,1627 C 1510,1627 1530,1644 1530,1662 L 1530,2458 C 1530,2480 1515,2492 1499,2492 L 344,2492 C 329,2492 314,2477 314,2461 L 314,1658 C 314,1640 328,1627 351,1627 L 384,1627 L 384,1122 M 384,1122 C 373,1111 366,1095 366,1078 C 366,1045 393,1017 427,1017 C 461,1017 489,1045 489,1078 C 489,1095 482,1111 470,1122"
   id="path3695"
   style="fill:#000000" />
  <path
   class="fil0"
   d="M 2165,1879 C 2165,1915 2165,1950 2165,1986 C 2163,2028 2163,2028 2155,2117 C 2147,2176 2147,2176 2139,2224 C 2133,2249 2128,2275 2123,2300 C 2108,2356 2093,2412 2074,2467 C 2071,2471 2068,2475 2065,2479 C 2058,2483 2051,2487 2043,2489 C 2028,2489 2020,2488 2007,2478 C 1996,2466 1995,2458 1995,2442 C 2025,2347 2048,2253 2065,2155 C 2067,2134 2070,2113 2073,2092 C 2077,2049 2077,2049 2081,1975 C 2081,1947 2081,1919 2081,1891 C 2078,1817 2070,1743 2059,1670 C 2053,1643 2048,1616 2043,1590 C 2037,1568 2032,1547 2027,1526 C 2016,1492 2005,1458 1995,1424 C 1995,1419 1995,1415 1995,1410 C 2000,1385 2020,1373 2045,1375 C 2050,1378 2055,1380 2060,1382 C 2065,1387 2070,1392 2074,1398 C 2108,1489 2129,1584 2146,1679 C 2148,1698 2151,1717 2154,1736 C 2158,1774 2158,1774 2165,1879 z"
   id="path3697"
   style="fill:#000000" />
  <path
   class="fil0"
   d="M 1857,2425 C 1850,2424 1842,2421 1835,2418 C 1815,2401 1814,2387 1820,2364 C 1825,2347 1830,2331 1836,2314 C 1851,2253 1866,2193 1876,2131 C 1878,2109 1881,2087 1884,2065 C 1885,2039 1887,2013 1889,1987 C 1889,1959 1889,1932 1889,1904 C 1885,1837 1885,1837 1881,1796 C 1875,1749 1866,1703 1857,1656 C 1851,1635 1846,1615 1841,1594 C 1830,1559 1788,1479 1852,1467 C 1866,1467 1873,1470 1885,1477 C 1888,1482 1892,1487 1896,1492 C 1907,1526 1918,1559 1928,1593 C 1933,1615 1938,1637 1944,1660 C 1954,1712 1962,1765 1968,1818 C 1970,1859 1972,1901 1974,1942 C 1973,1973 1972,2004 1971,2036 C 1968,2063 1965,2090 1963,2117 C 1955,2171 1955,2171 1947,2215 C 1937,2258 1926,2301 1915,2343 C 1908,2364 1902,2392 1888,2411 C 1884,2414 1880,2417 1875,2420 C 1869,2422 1863,2423 1857,2425 z"
   id="path3699"
   style="fill:#000000" />
  <path
   class="fil1"
   d="M 398,2409 L 398,1960 L 562,1960 L 562,2409 L 398,2409 z"
   id="path3701"
   style="fill:#ffffff" />
  <path
   class="fil1"
   d="M 647,2409 L 647,1960 L 1447,1960 L 1447,2409 L 647,2409 z"
   id="path3703"
   style="fill:#ffffff" />
  <path
   class="fil0"
   d="M 1673,2357 C 1659,2351 1659,2351 1652,2347 C 1647,2340 1647,2340 1642,2331 C 1633,2306 1648,2279 1656,2256 C 1672,2195 1672,2195 1680,2159 C 1684,2135 1688,2111 1692,2087 C 1696,2052 1696,2052 1701,1978 C 1701,1956 1701,1934 1701,1911 C 1698,1851 1691,1792 1681,1733 C 1676,1710 1670,1687 1665,1664 C 1656,1634 1645,1605 1639,1575 C 1640,1559 1645,1550 1658,1539 C 1677,1530 1690,1531 1708,1542 C 1714,1549 1714,1549 1719,1557 C 1747,1634 1764,1713 1776,1793 C 1780,1829 1780,1829 1785,1902 C 1785,1931 1785,1960 1785,1989 C 1782,2047 1774,2105 1765,2163 C 1753,2219 1739,2274 1721,2328 C 1717,2335 1712,2342 1707,2348 C 1702,2350 1697,2353 1692,2355 C 1686,2356 1680,2356 1673,2357 z"
   id="path3705"
   style="fill:#000000" />
  <path
   class="fil0"
   d="M 820,2353 C 764,2353 760,2270 820,2270 L 1277,2270 C 1338,2270 1338,2354 1279,2354 L 820,2353 z"
   id="path3707"
   style="fill:#000000" />
  <path
   class="fil0"
   d="M 740,2226 C 684,2226 686,2142 740,2142 L 1348,2141 C 1406,2141 1409,2225 1349,2225 L 740,2226 z"
   id="path3709"
   style="fill:#000000" />
  <path
   class="fil0"
   d="M 820,2098 C 767,2098 766,2013 820,2013 L 1270,2013 C 1336,2013 1337,2097 1270,2097 L 820,2098 z"
   id="path3711"
   style="fill:#000000" />
  <path
   class="fil1"
   d="M 398,1876 L 398,1711 L 1447,1711 L 1447,1876 L 398,1876 z"
   id="path3713"
   style="fill:#ffffff" />
  <circle
   class="fil0"
   cx="480"
   cy="2110"
   r="42"
   id="circle3715"
   sodipodi:cx="480"
   sodipodi:cy="2110"
   sodipodi:rx="42"
   sodipodi:ry="42"
   style="fill:#000000" />
  <circle
   class="fil0"
   cx="480"
   cy="2254"
   r="42"
   id="circle3717"
   sodipodi:cx="480"
   sodipodi:cy="2254"
   sodipodi:rx="42"
   sodipodi:ry="42"
   style="fill:#000000" />
  <circle
   class="fil0"
   cx="1338"
   cy="1793"
   r="58"
   id="circle3719"
   sodipodi:cx="1338"
   sodipodi:cy="1793"
   sodipodi:rx="58"
   sodipodi:ry="58"
   style="fill:#000000" />
 </g>
</svg>